<?xml version="1.0" standalone="no"?>
<!DOCTYPE svg PUBLIC "-//W3C//DTD SVG 20010904//EN"
 "http://www.w3.org/TR/2001/REC-SVG-20010904/DTD/svg10.dtd">
<svg version="1.0" xmlns="http://www.w3.org/2000/svg"
 width="900.000000pt" height="900.000000pt" viewBox="0 0 900.000000 900.000000"
 preserveAspectRatio="xMidYMid meet">
<metadata>
Created by potrace 1.14, written by Peter Selinger 2001-2017
</metadata>
<g transform="translate(0.000000,900.000000) scale(0.100000,-0.100000)"
fill="#000000" stroke="none">
<path d="M3606 8618 c-13 -19 -16 -57 -16 -219 0 -177 2 -197 18 -212 17 -16
94 -17 899 -17 840 0 881 1 896 18 15 16 17 47 17 220 0 196 -1 201 -22 216
-20 14 -122 16 -900 16 l-877 0 -15 -22z"/>
<path d="M1997 7812 c-168 -169 -267 -275 -267 -288 0 -12 56 -75 143 -162
123 -122 148 -143 171 -140 19 2 98 75 292 268 249 249 265 267 259 295 -4 20
-45 69 -138 162 -110 111 -137 132 -162 133 -27 0 -64 -34 -298 -268z"/>
<path d="M6547 7942 c-103 -103 -137 -143 -137 -162 0 -20 132 -157 623 -647
342 -342 625 -625 629 -629 19 -18 67 17 192 141 108 108 136 141 136 163 0
22 -105 132 -623 650 -547 547 -626 622 -652 622 -26 0 -52 -22 -168 -138z"/>
<path d="M3607 8052 c-15 -16 -17 -47 -17 -219 0 -181 2 -201 18 -216 17 -16
94 -17 899 -17 840 0 881 1 896 18 15 16 17 47 17 219 0 181 -2 201 -18 216
-17 16 -94 17 -899 17 -840 0 -881 -1 -896 -18z"/>
<path d="M2072 7027 c-541 -541 -622 -626 -622 -651 0 -25 23 -53 138 -168
112 -111 144 -138 167 -138 23 0 124 97 631 603 333 331 613 616 624 633 11
17 20 39 20 49 0 9 -62 80 -138 156 -115 115 -144 139 -168 139 -25 0 -112
-83 -652 -623z"/>
<path d="M6117 7512 c-114 -114 -137 -142 -137 -167 0 -26 79 -109 623 -652
508 -509 627 -623 648 -623 39 0 309 269 309 308 0 22 -110 137 -622 649 -549
549 -626 623 -653 623 -26 0 -52 -21 -168 -138z"/>
<path d="M3607 7472 c-15 -16 -17 -47 -17 -219 0 -181 2 -201 18 -216 17 -16
94 -17 900 -17 l881 0 15 22 c13 19 16 57 16 219 0 177 -2 197 -18 212 -17 16
-94 17 -899 17 -840 0 -881 -1 -896 -18z"/>
<path d="M1287 7102 c-228 -228 -267 -271 -267 -296 0 -25 22 -52 127 -157
118 -120 166 -156 193 -147 6 2 130 122 275 268 207 206 265 270 265 290 0 19
-34 60 -143 168 -88 88 -150 142 -162 142 -13 0 -116 -96 -288 -268z"/>
<path d="M2507 6601 c-540 -539 -618 -621 -622 -651 -4 -32 3 -41 129 -167
107 -108 139 -135 167 -139 34 -5 42 2 658 619 622 623 624 625 617 659 -5 27
-35 62 -140 166 -113 111 -139 132 -163 130 -23 -1 -138 -111 -646 -617z"/>
<path d="M5687 7082 c-115 -115 -137 -142 -137 -167 0 -26 36 -66 263 -293
227 -226 266 -262 292 -262 26 0 52 22 168 138 114 114 137 142 137 167 0 25
-38 67 -264 292 -221 220 -269 263 -293 263 -23 0 -54 -25 -166 -138z"/>
<path d="M4300 6729 c-47 -5 -123 -16 -170 -25 -47 -9 -96 -18 -110 -20 -34
-6 -148 -40 -240 -70 -95 -32 -312 -138 -410 -201 -277 -176 -558 -464 -712
-728 -46 -79 -164 -332 -173 -370 -1 -5 -5 -17 -8 -25 -13 -33 -55 -176 -56
-190 0 -8 -9 -58 -20 -110 -30 -141 -44 -326 -37 -480 6 -135 44 -394 71 -473
7 -23 23 -76 35 -117 12 -41 27 -84 34 -95 7 -11 20 -42 30 -70 40 -108 217
-412 247 -423 5 -2 9 -8 9 -14 0 -28 231 -273 350 -372 73 -61 219 -166 250
-180 8 -3 29 -15 45 -26 46 -29 232 -121 256 -125 11 -2 26 -8 33 -13 23 -19
242 -83 364 -108 298 -58 561 -56 866 7 55 12 106 24 111 27 6 4 15 7 20 7 14
1 120 33 153 47 15 6 30 12 34 12 3 1 10 4 14 8 4 5 13 8 20 8 20 0 224 99
271 131 23 16 44 29 48 29 3 0 36 21 73 47 302 210 553 490 708 789 53 104
106 224 97 224 -3 0 -1 6 4 13 47 58 126 441 138 662 15 262 -50 659 -141 862
-8 17 -14 35 -14 40 0 5 -5 14 -12 21 -6 6 -13 21 -15 32 -10 67 -190 358
-308 499 -168 200 -337 342 -590 498 -32 20 -243 123 -252 123 -4 1 -26 9 -48
20 -22 11 -45 19 -51 20 -6 0 -53 14 -105 31 -52 17 -110 32 -129 34 -19 1
-42 6 -50 9 -83 32 -468 53 -630 35z"/>
<path d="M6401 6356 c-123 -123 -143 -147 -138 -167 4 -13 125 -142 270 -286
210 -210 268 -263 289 -263 37 0 308 270 308 306 0 19 -63 89 -263 289 -227
229 -267 265 -292 265 -25 0 -53 -23 -174 -144z"/>
<path d="M477 5492 c-16 -17 -17 -94 -17 -899 0 -840 1 -881 18 -896 16 -15
47 -17 219 -17 181 0 201 2 216 18 16 17 17 94 17 899 0 840 -1 881 -18 896
-16 15 -47 17 -219 17 -181 0 -201 -2 -216 -18z"/>
<path d="M1047 5492 c-15 -17 -17 -59 -17 -394 l0 -375 23 -21 c22 -21 32 -22
220 -22 191 0 196 1 211 22 14 19 16 74 16 399 0 351 -1 377 -18 392 -16 15
-47 17 -219 17 -181 0 -201 -2 -216 -18z"/>
<path d="M1627 5492 c-16 -17 -17 -94 -17 -900 l0 -881 22 -15 c19 -13 57 -16
219 -16 177 0 197 2 212 18 16 17 17 94 17 899 0 840 -1 881 -18 896 -16 15
-47 17 -219 17 -181 0 -201 -2 -216 -18z"/>
<path d="M6947 5492 c-15 -17 -17 -59 -17 -394 l0 -375 23 -21 c22 -21 32 -22
209 -22 172 0 187 1 212 21 l26 20 0 378 c0 353 -1 379 -18 394 -16 15 -47 17
-219 17 -181 0 -201 -2 -216 -18z"/>
<path d="M7527 5492 c-16 -17 -17 -94 -17 -900 l0 -882 24 -15 c21 -14 55 -16
221 -13 180 3 198 5 211 22 11 16 14 161 14 894 0 803 -1 877 -16 894 -16 16
-36 18 -219 18 -183 0 -203 -2 -218 -18z"/>
<path d="M8097 5492 c-15 -17 -17 -59 -17 -395 l0 -376 26 -20 c25 -20 40 -21
215 -21 176 0 190 1 209 20 19 19 20 33 20 398 0 354 -1 380 -18 395 -16 15
-47 17 -219 17 -181 0 -201 -2 -216 -18z"/>
<path d="M1052 4487 c-22 -23 -22 -27 -22 -399 0 -350 1 -376 18 -391 16 -15
47 -17 219 -17 181 0 201 2 216 18 15 17 17 59 17 399 0 355 -1 381 -18 396
-16 15 -46 17 -214 17 -190 0 -195 0 -216 -23z"/>
<path d="M6952 4490 c-22 -21 -22 -23 -22 -399 0 -353 1 -379 18 -394 16 -15
47 -17 219 -17 181 0 201 2 216 18 15 17 17 59 17 395 0 364 -1 378 -20 397
-19 19 -33 20 -213 20 -181 0 -195 -1 -215 -20z"/>
<path d="M8102 4487 c-22 -23 -22 -27 -22 -399 0 -350 1 -376 18 -391 16 -15
47 -17 219 -17 181 0 201 2 216 18 15 17 17 59 17 400 l0 381 -22 15 c-18 13
-57 16 -213 16 -187 0 -192 -1 -213 -23z"/>
<path d="M2018 3413 c-79 -78 -138 -145 -138 -156 0 -10 5 -28 11 -40 6 -12
287 -298 624 -634 484 -484 618 -613 638 -613 37 0 307 271 307 308 0 22 -108
135 -623 650 -538 538 -626 622 -651 622 -24 0 -54 -24 -168 -137z"/>
<path d="M6527 3282 c-172 -172 -267 -274 -267 -287 0 -13 54 -74 143 -163
123 -123 148 -143 171 -140 39 5 556 521 556 556 0 17 -37 61 -137 163 -117
118 -142 139 -168 139 -26 0 -65 -35 -298 -268z"/>
<path d="M1588 2983 c-116 -116 -138 -143 -138 -168 0 -26 36 -66 263 -293
227 -226 266 -262 292 -262 26 0 52 22 168 138 115 115 137 142 137 167 0 26
-36 66 -258 288 -216 215 -264 259 -293 263 -33 5 -39 0 -171 -133z"/>
<path d="M6963 2858 c-227 -227 -263 -267 -263 -293 0 -26 22 -52 138 -168
115 -115 142 -137 167 -137 26 0 66 35 294 264 258 259 264 265 257 298 -10
49 -249 287 -297 294 -33 5 -40 -1 -296 -258z"/>
<path d="M5818 2573 c-233 -233 -268 -271 -268 -298 0 -25 21 -51 133 -162 92
-92 142 -135 163 -139 27 -5 45 11 294 260 194 195 266 273 268 292 3 23 -17
48 -140 171 -87 87 -150 143 -162 143 -13 0 -119 -99 -288 -267z"/>
<path d="M1157 2552 c-115 -115 -137 -142 -137 -167 0 -26 36 -66 264 -294
218 -218 268 -263 291 -263 23 0 55 27 167 140 117 117 139 144 136 166 -5 40
-523 556 -558 556 -19 0 -58 -33 -163 -138z"/>
<path d="M7033 2066 c-600 -600 -624 -626 -619 -656 3 -24 36 -64 138 -166
112 -111 139 -134 164 -134 25 0 111 82 652 623 541 541 622 626 622 651 0 25
-23 53 -139 168 -110 110 -144 138 -166 138 -23 0 -130 -102 -652 -624z"/>
<path d="M2307 2262 c-113 -115 -137 -144 -137 -168 0 -25 39 -68 263 -292
172 -172 269 -262 283 -262 29 0 65 30 197 164 89 90 117 126 117 145 0 21
-54 80 -263 289 -228 228 -266 262 -293 262 -25 0 -51 -21 -167 -138z"/>
<path d="M6242 2137 c-253 -253 -263 -265 -259 -296 8 -46 247 -288 295 -297
32 -7 39 -1 298 257 229 229 264 268 264 294 0 26 -21 51 -138 168 -115 115
-142 137 -167 137 -26 0 -66 -36 -293 -263z"/>
<path d="M3607 2152 c-15 -16 -17 -47 -17 -219 0 -181 2 -201 18 -216 17 -15
59 -17 394 -17 l375 0 21 23 c21 22 22 32 22 213 0 186 -1 191 -23 212 -23 22
-27 22 -399 22 -350 0 -376 -1 -391 -18z"/>
<path d="M4630 2163 c-36 -13 -40 -33 -40 -230 0 -180 1 -194 20 -213 19 -19
33 -20 398 -20 354 0 380 1 395 18 15 16 17 47 17 219 0 181 -2 201 -18 216
-17 15 -58 17 -388 16 -203 0 -376 -3 -384 -6z"/>
<path d="M1872 1827 c-88 -88 -142 -150 -142 -162 0 -13 96 -116 268 -288 216
-216 272 -267 294 -267 21 0 56 30 167 141 78 78 141 149 141 158 0 9 -4 22
-9 30 -5 8 -126 131 -268 273 -201 201 -263 258 -283 258 -19 0 -60 -34 -168
-143z"/>
<path d="M3607 1572 c-15 -16 -17 -47 -17 -220 0 -196 1 -201 22 -216 19 -14
73 -16 389 -16 355 0 367 1 393 21 l26 20 0 198 c0 179 -2 199 -18 214 -17 15
-59 17 -399 17 -355 0 -381 -1 -396 -18z"/>
<path d="M4607 1572 c-15 -16 -17 -46 -17 -214 0 -191 0 -195 24 -217 l23 -22
377 3 c353 3 379 4 391 21 10 14 14 68 15 214 1 171 -1 198 -16 214 -16 18
-39 19 -399 19 -357 0 -383 -1 -398 -18z"/>
<path d="M3607 1002 c-15 -16 -17 -47 -17 -219 0 -181 2 -201 18 -216 17 -15
59 -17 399 -17 355 0 381 1 396 18 15 16 17 46 17 214 0 190 0 195 -23 216
-23 22 -27 22 -399 22 -350 0 -376 -1 -391 -18z"/>
<path d="M4612 997 c-21 -22 -22 -32 -22 -219 0 -176 2 -196 18 -211 17 -15
59 -17 400 -17 l381 0 15 22 c13 19 16 57 16 219 0 177 -2 197 -18 212 -17 15
-59 17 -394 17 l-375 0 -21 -23z"/>
</g>
</svg>
